<?xml version="1.0" standalone="no"?>
<!DOCTYPE svg PUBLIC "-//W3C//DTD SVG 20010904//EN"
 "http://www.w3.org/TR/2001/REC-SVG-20010904/DTD/svg10.dtd">
<svg version="1.0" xmlns="http://www.w3.org/2000/svg"
 width="256.000000pt" height="256.000000pt" viewBox="0 0 256.000000 256.000000"
 preserveAspectRatio="xMidYMid meet">
<metadata>
Created by potrace 1.12, written by Peter Selinger 2001-2015
</metadata>
<g transform="translate(0.000000,256.000000) scale(0.100000,-0.100000)"
fill="#000000" stroke="none">
<path d="M0 1280 l0 -1280 1280 0 1280 0 0 336 0 336 -52 -45 c-85 -71 -173
-126 -293 -183 -500 -238 -1094 -156 -1515 208 -231 200 -385 462 -455 773
-26 112 -31 382 -10 507 36 215 123 426 251 606 l16 22 -251 0 -251 0 0 -1280z"/>
<path d="M639 2523 c-49 -57 -136 -194 -174 -276 -162 -351 -157 -765 14
-1104 170 -339 461 -570 841 -670 132 -35 366 -43 507 -18 261 46 481 156 661
329 l72 69 0 854 0 853 -944 0 -944 0 -33 -37z m814 -212 c28 -11 28 -10 132
-311 50 -144 74 -200 93 -216 14 -11 27 -36 31 -56 5 -33 37 -62 351 -323 190
-158 348 -292 352 -299 15 -22 8 -46 -18 -62 -31 -21 1 -44 -412 299 -314 261
-324 268 -372 272 l-49 5 -336 -303 c-185 -166 -340 -303 -344 -305 -5 -2 -11
4 -14 12 -4 9 105 113 331 317 210 189 336 309 334 319 -2 8 -5 42 -6 75 -2
44 -24 119 -84 288 -85 239 -89 261 -45 286 23 13 26 13 56 2z"/>
</g>
</svg>
